<?xml version="1.0" encoding="UTF-8"?>
<svg width="292px" height="32px" viewBox="0 0 292 32" version="1.1" xmlns="http://www.w3.org/2000/svg" xmlns:xlink="http://www.w3.org/1999/xlink">
    <title>Group 2</title>
    <g id="Page-1" stroke="none" stroke-width="1" fill="none" fill-rule="evenodd">
        <g id="Artboard" transform="translate(-54.000000, -49.000000)">
            <g id="Group-2" transform="translate(54.000000, 49.000000)">
                <polygon id="Fill-1-Copy" fill="#0E0281" points="17 26 27 26 27 16 17 16"></polygon>
                <polygon id="Fill-1-Copy-2" fill="#70F69A" points="15 12 27 12 27 0 15 0"></polygon>
                <polygon id="Fill-2" fill="#1E25D9" points="241 6 245 6 245 3 241 3"></polygon>
                <g id="Group-27" transform="translate(38.226467, 1.115890)">
                    <path d="M4.19844664,20.041816 L7.64248489,20.041816 C9.56655427,20.041816 11.0865232,19.7296894 12.2017355,19.1054361 C13.3169479,18.4811828 14.1149808,17.5832437 14.5961621,16.4112903 C15.0770155,15.2396655 15.3177702,13.8212963 15.3177702,12.1565114 C15.3177702,10.5137395 15.0770155,9.10095579 14.5961621,7.9181601 C14.1149808,6.7353644 13.3169479,5.82658303 12.2017355,5.1911589 C11.0865232,4.55606332 9.56655427,4.23835125 7.64248489,4.23835125 L4.19844664,4.23835125 L4.19844664,20.041816 Z M0,23.655914 L0,0.657108722 L7.83928708,0.657108722 C10.528917,0.657108722 12.7429415,1.13351254 14.4813609,2.08632019 C16.2197802,3.03912784 17.5098185,4.37535842 18.3518039,6.09468339 C19.1931332,7.81466547 19.6146179,9.83527479 19.6146179,12.1565114 C19.6146179,14.478405 19.1931332,16.4990143 18.3518039,18.2183393 C17.5098185,19.9383214 16.2197802,21.2738949 14.4813609,22.2267025 C12.7429415,23.1795102 10.528917,23.655914 7.83928708,23.655914 L0,23.655914 Z" id="Fill-6" fill="#141B33"></path>
                    <path d="M22.8946543,23.655914 L22.8946543,7.35961768 L26.6338959,7.35961768 L27.0275002,10.4151732 C27.6179068,9.36379928 28.4215157,8.52598566 29.438327,7.90173238 C30.4551383,7.27747909 31.6523516,6.96535245 33.0299669,6.96535245 L33.0299669,11.4008363 L31.8491538,11.4008363 C30.9307436,11.4008363 30.1107345,11.5434289 29.3891265,11.827957 C28.6675184,12.1128136 28.1043362,12.6056452 27.6999077,13.3064516 C27.2951512,14.0075866 27.093101,14.9820789 27.093101,16.2305854 L27.093101,23.655914 L22.8946543,23.655914 Z" id="Fill-8" fill="#141B33"></path>
                    <path d="M43.395046,20.4032587 C44.4882822,20.4032587 45.4394927,19.9925657 46.2486777,19.1711798 C47.0575347,18.3497939 47.4622912,17.1288859 47.4622912,15.5077987 C47.4622912,13.88704 47.0575347,12.6658035 46.2486777,11.8444176 C45.4394927,11.0230317 44.4991063,10.6123387 43.4278464,10.6123387 C42.312634,10.6123387 41.3558474,11.0230317 40.5578145,11.8444176 C39.7594537,12.6658035 39.3606012,13.88704 39.3606012,15.5077987 C39.3606012,17.1288859 39.7594537,18.3497939 40.5578145,19.1711798 C41.3558474,19.9925657 42.3014819,20.4032587 43.395046,20.4032587 M43.395046,24.0502121 C41.8206285,24.0502121 40.4046368,23.6888023 39.1473989,22.9659827 C37.8898329,22.2431631 36.8949978,21.2410723 36.1625657,19.9597103 C35.4298056,18.6783483 35.0637535,17.1945968 35.0637535,15.5077987 C35.0637535,13.8213292 35.4353816,12.3372491 36.1789659,11.0558871 C36.9222221,9.77452509 37.9226332,8.77243429 39.1801992,8.0496147 C40.4374372,7.3267951 41.8534289,6.9653853 43.4278464,6.9653853 C44.9802876,6.9653853 46.3851273,7.3267951 47.6426932,8.0496147 C48.8999312,8.77243429 49.8947662,9.77452509 50.6275264,11.0558871 C51.3599585,12.3372491 51.7263386,13.8213292 51.7263386,15.5077987 C51.7263386,17.1945968 51.3599585,18.6783483 50.6275264,19.9597103 C49.8947662,21.2410723 48.8943551,22.2431631 47.626293,22.9659827 C46.3579029,23.6888023 44.9474873,24.0502121 43.395046,24.0502121" id="Fill-10" fill="#141B33"></path>
                    <path d="M63.2389713,20.3703704 C64.5723061,20.3703704 65.6770223,19.9215651 66.5518081,19.0232975 C67.4262658,18.1253584 67.8638226,16.9645759 67.8638226,15.5406213 C67.8638226,14.1169952 67.4262658,12.9450418 66.5518081,12.0250896 C65.6770223,11.1051374 64.5723061,10.6451613 63.2389713,10.6451613 C61.8826762,10.6451613 60.7730399,11.1002091 59.9097343,12.0086619 C59.0454447,12.9177718 58.6141199,14.0841398 58.6141199,15.5077658 C58.6141199,16.9317204 59.0454447,18.0980884 59.9097343,19.0068698 C60.7730399,19.9159797 61.8826762,20.3703704 63.2389713,20.3703704 L63.2389713,20.3703704 Z M54.481274,30.8841099 L54.481274,7.35961768 L58.2205155,7.35961768 L58.6797206,9.69235364 C59.2045265,8.96953405 59.8982542,8.33443847 60.7625438,7.78673835 C61.6261774,7.23969534 62.7469658,6.96535245 64.1245811,6.96535245 C65.6547181,6.96535245 67.0218373,7.33793309 68.2246266,8.08243728 C69.42676,8.82727001 70.3782986,9.84578853 71.0782583,11.1379928 C71.7778901,12.4305257 72.12787,13.8978495 72.12787,15.5406213 C72.12787,17.1833931 71.7778901,18.64546 71.0782583,19.926822 C70.3782986,21.208184 69.42676,22.2158602 68.2246266,22.9495221 C67.0218373,23.683184 65.6547181,24.0501792 64.1245811,24.0501792 C62.8994875,24.0501792 61.8285556,23.8201912 60.9101454,23.3602151 C59.9917352,22.9002389 59.2481509,22.2543011 58.6797206,21.4217443 L58.6797206,30.8841099 L54.481274,30.8841099 Z" id="Fill-12" fill="#141B33"></path>
                    <path d="M80.1636641,20.2389815 L84.8541162,20.2389815 C86.10053,20.2389815 87.0681408,19.948868 87.7569484,19.3683124 C88.4457561,18.7880854 88.7901599,17.9719564 88.7901599,16.9205824 C88.7901599,15.8475239 88.4293559,15.0041249 87.7077479,14.3907139 C86.9861399,13.7776314 86.012953,13.4707616 84.7885154,13.4707616 L80.1636641,13.4707616 L80.1636641,20.2389815 Z M80.1636641,10.3166398 L84.5589129,10.3166398 C85.739726,10.3166398 86.6469841,10.042954 87.2813431,9.49525388 C87.9153742,8.94788232 88.2325537,8.17019415 88.2325537,7.16251792 C88.2325537,6.19886798 87.9209502,5.43760753 87.2977433,4.87906511 C86.6745364,4.3205227 85.739726,4.04125149 84.4933122,4.04125149 L80.1636641,4.04125149 L80.1636641,10.3166398 Z M75.9652174,23.6559468 L75.9652174,0.657141577 L85.1821198,0.657141577 C87.5650663,0.657141577 89.3858145,1.21042712 90.6433805,2.3163411 C91.9006184,3.42258363 92.5294014,4.84095281 92.5294014,6.57112007 C92.5294014,8.01675926 92.1410451,9.17228495 91.3649885,10.0373686 C90.5886039,10.9027808 89.6429694,11.4885932 88.527757,11.7951344 C89.8397715,12.0579779 90.9221836,12.7098297 91.774993,13.7500329 C92.6278025,14.7905645 93.0542073,16.0006302 93.0542073,17.3805585 C93.0542073,19.1987784 92.3982,20.6989576 91.0861854,21.8817533 C89.7741708,23.064549 87.9153742,23.6559468 85.5101235,23.6559468 L75.9652174,23.6559468 Z" id="Fill-14" fill="#141B33"></path>
                    <polygon id="Fill-16" fill="#141B33" points="96.5636822 23.655914 100.762129 23.655914 100.762129 0 96.5636822 0"></polygon>
                    <path d="M112.20903,20.4032587 C113.302266,20.4032587 114.253476,19.9925657 115.062661,19.1711798 C115.871518,18.3497939 116.276275,17.1288859 116.276275,15.5077987 C116.276275,13.88704 115.871518,12.6658035 115.062661,11.8444176 C114.253476,11.0230317 113.31309,10.6123387 112.24183,10.6123387 C111.126618,10.6123387 110.169831,11.0230317 109.371798,11.8444176 C108.573437,12.6658035 108.174585,13.88704 108.174585,15.5077987 C108.174585,17.1288859 108.573437,18.3497939 109.371798,19.1711798 C110.169831,19.9925657 111.115465,20.4032587 112.20903,20.4032587 M112.20903,24.0502121 C110.634612,24.0502121 109.21862,23.6888023 107.961382,22.9659827 C106.703816,22.2431631 105.708981,21.2410723 104.976549,19.9597103 C104.243789,18.6783483 103.877737,17.1945968 103.877737,15.5077987 C103.877737,13.8213292 104.249365,12.3372491 104.992949,11.0558871 C105.736206,9.77452509 106.736617,8.77243429 107.994183,8.0496147 C109.251421,7.3267951 110.667413,6.9653853 112.24183,6.9653853 C113.794271,6.9653853 115.199111,7.3267951 116.456677,8.0496147 C117.713915,8.77243429 118.70875,9.77452509 119.44151,11.0558871 C120.173942,12.3372491 120.540322,13.8213292 120.540322,15.5077987 C120.540322,17.1945968 120.173942,18.6783483 119.44151,19.9597103 C118.70875,21.2410723 117.708339,22.2431631 116.440277,22.9659827 C115.171887,23.6888023 113.761471,24.0502121 112.20903,24.0502121" id="Fill-18" fill="#141B33"></path>
                    <path d="M131.265582,24.0502449 C129.603588,24.0502449 128.138395,23.6888351 126.870333,22.9660155 C125.601943,22.2431959 124.601532,21.2358483 123.8691,19.9433154 C123.13634,18.6511111 122.770288,17.1726165 122.770288,15.5078315 C122.770288,13.8433751 123.13634,12.3648805 123.8691,11.0723477 C124.601532,9.78014337 125.601943,8.77246714 126.870333,8.04964755 C128.138395,7.32682796 129.603588,6.96541816 131.265582,6.96541816 C133.342829,6.96541816 135.092073,7.50753286 136.51364,8.59176225 C137.93488,9.67599164 138.842466,11.170914 139.236071,13.0765293 L134.808021,13.0765293 C134.589243,12.2879988 134.157262,11.6693309 133.512407,11.2201971 C132.867224,10.7713919 132.107239,10.5466607 131.232782,10.5466607 C130.073617,10.5466607 129.089606,10.9849522 128.280749,11.8608781 C127.471564,12.7371326 127.067135,13.9527838 127.067135,15.5078315 C127.067135,17.0632079 127.471564,18.278859 128.280749,19.1547849 C129.089606,20.0310394 130.073617,20.4690024 131.232782,20.4690024 C132.107239,20.4690024 132.867224,20.2501852 133.512407,19.8118937 C134.157262,19.3739307 134.589243,18.7496774 134.808021,17.9391338 L139.236071,17.9391338 C138.842466,19.7790382 137.93488,21.2575329 136.51364,22.3746177 C135.092073,23.4917025 133.342829,24.0502449 131.265582,24.0502449" id="Fill-19" fill="#141B33"></path>
                    <polygon id="Fill-20" fill="#141B33" points="142.647079 23.655914 142.647079 0 146.845526 0 146.845526 13.9635603 152.61839 7.35961768 157.604045 7.35961768 150.945571 14.7849462 158.686457 23.655914 153.438399 23.655914 146.845526 15.4749104 146.845526 23.655914"></polygon>
                    <polygon id="Fill-21" fill="#1E25D9" points="162.031799 23.655914 162.031799 0.657108722 177.021566 0.657108722 177.021566 4.04121864 166.230246 4.04121864 166.230246 10.3494624 176.037555 10.3494624 176.037555 13.635006 166.230246 13.635006 166.230246 20.2718041 177.021566 20.2718041 177.021566 23.655914"></polygon>
                    <path d="M188.92777,20.3703704 C190.283409,20.3703704 191.393045,19.9159797 192.257007,19.0068698 C193.12064,18.0980884 193.552621,16.9317204 193.552621,15.5077658 C193.552621,14.0841398 193.12064,12.9177718 192.257007,12.0086619 C191.393045,11.1002091 190.283409,10.6451613 188.92777,10.6451613 C187.593779,10.6451613 186.489063,11.0942951 185.614933,11.9922342 C184.740147,12.8905018 184.302918,14.0512843 184.302918,15.4749104 C184.302918,16.8991935 184.740147,18.0704898 185.614933,18.9904421 C186.489063,19.9103943 187.593779,20.3703704 188.92777,20.3703704 M188.04216,24.0501792 C186.511367,24.0501792 185.144576,23.67727 183.942114,22.9330944 C182.739325,22.1885902 181.788115,21.1704002 181.088483,19.8775388 C180.388523,18.5853345 180.038871,17.1176822 180.038871,15.4749104 C180.038871,13.8321386 180.388523,12.3700717 181.088483,11.0887097 C181.788115,9.80734767 182.739325,8.80032855 183.942114,8.06600956 C185.144576,7.33234767 186.511367,6.96535245 188.04216,6.96535245 C189.266598,6.96535245 190.338185,7.1953405 191.256596,7.65531661 C192.175006,8.11529271 192.918262,8.76155914 193.48702,9.59378734 L193.48702,0 L197.685467,0 L197.685467,23.655914 L193.946226,23.655914 L193.48702,21.323178 C192.962215,22.0459976 192.267831,22.6814217 191.404197,23.2287933 C190.540236,23.7761649 189.419775,24.0501792 188.04216,24.0501792" id="Fill-22" fill="#1E25D9"></path>
                    <polygon id="Fill-23" fill="#1E25D9" points="201.785283 23.655914 205.98373 23.655914 205.98373 7.35961768 201.785283 7.35961768"></polygon>
                    <path d="M217.627761,23.655914 C215.922142,23.655914 214.555351,23.2399642 213.527715,22.4074074 C212.499752,21.5751792 211.986098,20.0966846 211.986098,17.9719235 L211.986098,10.8751493 L209.198067,10.8751493 L209.198067,7.35961768 L211.986098,7.35961768 L212.478103,2.98984468 L216.184545,2.98984468 L216.184545,7.35961768 L220.579793,7.35961768 L220.579793,10.8751493 L216.184545,10.8751493 L216.184545,18.004779 C216.184545,18.7933094 216.353794,19.3354241 216.69295,19.6311231 C217.031778,19.926822 217.616281,20.0746714 218.44777,20.0746714 L220.481392,20.0746714 L220.481392,23.655914 L217.627761,23.655914 Z" id="Fill-24" fill="#1E25D9"></path>
                    <path d="M231.568079,20.4032587 C232.661316,20.4032587 233.612526,19.9925657 234.421711,19.1711798 C235.230568,18.3497939 235.635325,17.1288859 235.635325,15.5077987 C235.635325,13.88704 235.230568,12.6658035 234.421711,11.8444176 C233.612526,11.0230317 232.67214,10.6123387 231.60088,10.6123387 C230.485667,10.6123387 229.528881,11.0230317 228.730848,11.8444176 C227.932487,12.6658035 227.533635,13.88704 227.533635,15.5077987 C227.533635,17.1288859 227.932487,18.3497939 228.730848,19.1711798 C229.528881,19.9925657 230.474515,20.4032587 231.568079,20.4032587 M231.568079,24.0502121 C229.993662,24.0502121 228.57767,23.6888023 227.320432,22.9659827 C226.062866,22.2431631 225.068031,21.2410723 224.335599,19.9597103 C223.602839,18.6783483 223.236787,17.1945968 223.236787,15.5077987 C223.236787,13.8213292 223.608415,12.3372491 224.351999,11.0558871 C225.095256,9.77452509 226.095667,8.77243429 227.353233,8.0496147 C228.610471,7.3267951 230.026462,6.9653853 231.60088,6.9653853 C233.153321,6.9653853 234.558161,7.3267951 235.815727,8.0496147 C237.072965,8.77243429 238.0678,9.77452509 238.80056,11.0558871 C239.532992,12.3372491 239.899372,13.8213292 239.899372,15.5077987 C239.899372,17.1945968 239.532992,18.6783483 238.80056,19.9597103 C238.0678,21.2410723 237.067389,22.2431631 235.799326,22.9659827 C234.530936,23.6888023 233.120521,24.0502121 231.568079,24.0502121" id="Fill-25" fill="#1E25D9"></path>
                    <path d="M243.638253,23.655914 L243.638253,7.35961768 L247.377494,7.35961768 L247.771099,10.4151732 C248.361505,9.36379928 249.165114,8.52598566 250.181925,7.90173238 C251.198737,7.27747909 252.39595,6.96535245 253.773565,6.96535245 L253.773565,11.4008363 L252.592752,11.4008363 C251.674342,11.4008363 250.854333,11.5434289 250.132725,11.827957 C249.411117,12.1128136 248.847935,12.6056452 248.443506,13.3064516 C248.03875,14.0075866 247.836699,14.9820789 247.836699,16.2305854 L247.836699,23.655914 L243.638253,23.655914 Z" id="Fill-26" fill="#1E25D9"></path>
                </g>
                <polygon id="Fill-1" fill="#1E25D9" points="0 21 12 21 12 6 0 6"></polygon>
            </g>
        </g>
    </g>
</svg>